<?xml version="1.0" encoding="iso-8859-1"?>
<!-- Generator: Adobe Illustrator 16.0.0, SVG Export Plug-In . SVG Version: 6.00 Build 0)  -->
<!DOCTYPE svg PUBLIC "-//W3C//DTD SVG 1.1//EN" "http://www.w3.org/Graphics/SVG/1.1/DTD/svg11.dtd">
<svg version="1.1" id="Capa_1" xmlns="http://www.w3.org/2000/svg" xmlns:xlink="http://www.w3.org/1999/xlink" x="0px" y="0px"
	 width="335.325px" height="335.325px" viewBox="0 0 335.325 335.325" style="enable-background:new 0 0 335.325 335.325;"
	 xml:space="preserve">
<g>
	<path d="M333.087,39.21c-11.628-11.016-25.092-18.972-39.168-26.316c-4.284-2.448-11.016,0.612-10.404,6.12
		c0,3.672,0,7.344-0.611,10.404c-43.452-3.672-90.576,8.568-133.416,28.764c-25.704-8.568-51.408-11.016-78.336-11.016
		c-7.956-7.344-12.24-17.748-19.584-25.704c-4.896-5.508-13.464,1.836-9.792,7.344c3.672,6.12,7.956,12.852,12.24,18.36
		c-4.896,0-9.18,0-14.076,0.612l0,0C31.983,42.882,25.251,36.15,17.907,30.03c-4.896-4.284-9.18-9.18-15.3-6.732
		c-1.836,0.612-3.06,3.06-2.448,4.896c0.612,6.12,6.732,9.18,11.016,12.852c2.448,2.448,5.508,4.896,8.568,7.344
		c-0.612,0-0.612,0-1.224,0c-9.792,0-9.792,15.912,0,15.3c1.224,0,2.448,0,3.672,0c-1.836,3.06-3.06,5.508-4.896,8.568
		c-1.224,2.448-3.672,6.12-3.06,9.18c0,0,0,0.612-0.612,0.612c0,0.612,0,1.836,0.612,2.448c1.224,2.448,4.284,1.836,5.508,0l0,0
		c0.612,0,1.224-0.612,1.836-1.224c2.448-1.836,4.284-4.896,6.12-7.956c3.06-4.284,5.508-8.568,9.18-12.852
		c5.508,0,11.628-0.612,17.136-0.612c-5.508,7.956-11.628,15.912-18.972,22.644c-3.06,2.448,1.224,7.956,4.284,5.508
		c11.016-7.956,19.584-18.36,29.376-28.152c20.808,0,41.004,0.612,61.812,5.508c-27.54,15.912-52.632,34.884-72.828,55.692
		c-63.648,66.708-29.376,148.104,45.9,187.272c88.74,45.899,173.808-37.944,157.284-129.132
		c-9.18-51.408-41.616-89.353-86.904-113.833c-1.836-0.612-3.672-1.836-4.896-2.448c36.107-15.3,75.275-25.092,112.607-26.928
		c-0.611,6.12-1.224,12.24,0.612,18.36c0.612,1.224,1.224,2.448,2.448,3.06c0.611,1.836,1.224,3.06,3.06,4.284
		c6.12,3.672,13.464-1.836,18.973-4.284c7.955-3.672,15.3-7.344,23.867-9.792C334.923,49.614,337.371,42.882,333.087,39.21z
		 M241.287,162.834c16.523,43.452,6.732,96.084-28.152,127.296c-36.107,32.437-87.516,21.42-124.236-3.06
		c-31.824-21.42-58.752-57.528-52.02-97.309c5.508-31.212,30.6-56.304,53.856-75.888c17.748-14.688,37.944-27.54,59.976-38.556
		C191.715,90.618,225.375,121.83,241.287,162.834z"/>
</g>
<g>
</g>
<g>
</g>
<g>
</g>
<g>
</g>
<g>
</g>
<g>
</g>
<g>
</g>
<g>
</g>
<g>
</g>
<g>
</g>
<g>
</g>
<g>
</g>
<g>
</g>
<g>
</g>
<g>
</g>
</svg>
