<?xml version="1.0" encoding="iso-8859-1"?>
<!-- Generator: Adobe Illustrator 16.0.0, SVG Export Plug-In . SVG Version: 6.00 Build 0)  -->
<!DOCTYPE svg PUBLIC "-//W3C//DTD SVG 1.1//EN" "http://www.w3.org/Graphics/SVG/1.1/DTD/svg11.dtd">
<svg version="1.1" id="Capa_1" xmlns="http://www.w3.org/2000/svg" xmlns:xlink="http://www.w3.org/1999/xlink" x="0px" y="0px"
	 width="418.424px" height="418.423px" viewBox="0 0 418.424 418.423" style="enable-background:new 0 0 418.424 418.423;"
	 xml:space="preserve">
<g>
	<path d="M414.488,92.83c-17.748-7.344-34.272-17.136-51.408-23.868c-3.672-1.836-8.568,1.836-9.181,5.508
		c-1.224,6.12-3.06,12.24-3.672,18.36c-88.739-7.344-209.916-25.092-280.296,44.064c-30.6,29.988-39.78,72.828-40.392,116.28
		c-9.18,14.688-18.36,29.376-28.764,44.063c-3.06,4.284,3.672,9.792,7.344,5.509c7.956-8.568,14.688-17.748,21.42-27.54
		c0.612,9.18,1.224,18.359,1.836,26.928c-7.344,11.628-15.912,22.032-18.972,35.496c-1.836,7.344,8.568,9.792,11.016,3.06
		c2.448-6.731,6.12-12.239,9.792-17.748c1.224,7.956,1.836,15.301,3.06,22.645c0.612,5.508,9.18,6.12,9.18,0
		c0-11.628-0.612-23.256-1.224-35.496c9.792,6.731,20.196,13.464,27.54,22.644c5.508,7.345,15.3-3.06,9.792-9.792
		c-9.792-12.239-24.48-21.42-37.332-29.987h-0.612c-0.612-12.853-0.612-25.704,0-38.557c14.076,7.956,25.092,19.584,35.496,32.437
		c5.508,6.731,14.688-3.061,9.18-9.181c-12.24-15.3-26.316-29.376-44.064-37.332c2.448-31.824,10.404-62.424,30.6-88.127
		c61.2-75.276,190.333-48.348,273.564-45.9c0,4.284,0,8.568,0.612,12.852c0.612,3.06,3.672,5.508,6.731,5.508
		c-0.611,3.672,2.448,6.732,6.12,7.344c6.732,0.612,14.688-6.12,20.196-9.792c10.404-6.12,20.808-11.628,31.824-15.912
		C418.16,104.458,421.22,95.89,414.488,92.83z"/>
</g>
<g>
</g>
<g>
</g>
<g>
</g>
<g>
</g>
<g>
</g>
<g>
</g>
<g>
</g>
<g>
</g>
<g>
</g>
<g>
</g>
<g>
</g>
<g>
</g>
<g>
</g>
<g>
</g>
<g>
</g>
</svg>
